<svg width="17" height="17" viewBox="0 0 17 17" fill="none" xmlns="http://www.w3.org/2000/svg">
<g clip-path="url(#clip0_26_623)">
<path d="M3.71162 0.271876C3.04653 -0.0957279 2.26563 -0.0872284 1.6048 0.277188L9.34998 7.4221L11.9519 4.82018L3.71162 0.271876Z" fill="#1E222E"/>
<path d="M0.828733 1.00854C0.639619 1.31771 0.53125 1.67151 0.53125 2.04655V14.9509C0.53125 15.3143 0.630057 15.6607 0.808547 15.9634L8.59729 8.1747L0.828733 1.00854Z" fill="#1E222E"/>
<path d="M15.4033 6.72422L12.9214 5.35474L10.1325 8.14258L13.5504 11.2948L15.4043 10.2717C16.0715 9.90198 16.471 9.23902 16.471 8.49743C16.47 7.75585 16.0715 7.09289 15.4033 6.72422Z" fill="#1E222E"/>
<path d="M9.3761 8.89429L1.5661 16.7043C1.90502 16.8976 2.27687 16.9996 2.65085 16.9996C3.01208 16.9996 3.37544 16.9083 3.70798 16.7245L12.5655 11.8362L9.3761 8.89429Z" fill="#1E222E"/>
</g>
<defs>
<clipPath id="clip0_26_623">
<rect width="17" height="17" fill="white"/>
</clipPath>
</defs>
</svg>
